<?xml version="1.0" encoding="UTF-8" standalone="no"?><!DOCTYPE svg PUBLIC "-//W3C//DTD SVG 1.1//EN" "http://www.w3.org/Graphics/SVG/1.1/DTD/svg11.dtd"><svg width="100%" height="100%" viewBox="0 0 2337 1060" version="1.1" xmlns="http://www.w3.org/2000/svg" xmlns:xlink="http://www.w3.org/1999/xlink" xml:space="preserve" xmlns:serif="http://www.serif.com/" style="fill-rule:evenodd;clip-rule:evenodd;stroke-linejoin:round;stroke-miterlimit:2;"><g><clipPath id="_clip1"><rect x="247.624" y="0.006" width="1832.03" height="1059.36"/></clipPath><g clip-path="url(#_clip1)"><path d="M1123.85,203.863c-16.586,-27.083 -9.05,-73.079 30.501,-70.557c7.324,0.456 21.468,7.097 21.045,16.846c-0.765,17.383 -17.904,4.883 -26.302,6.315c-15.414,2.637 -14.437,26.546 -5.257,37.907c16.341,20.264 57.731,6.722 68.359,-7.357c19.434,-25.716 2.393,-66.26 -11.556,-84.261c-14.746,-18.994 -36.23,-34.749 -62.077,-50.537c-33.203,-20.296 -67.431,-35.563 -117.806,-29.492c-76.22,9.196 -143.034,40.039 -188.297,80.029c-47.917,42.35 -73.91,100.195 -92.562,172.705c6.282,0.602 10.921,7.715 15.771,6.332c7.048,-31.234 19.287,-57.552 35.775,-81.088c3.841,-5.485 13.167,-19.498 21.029,-18.961c21.045,1.448 1.025,27.148 -4.199,34.749c-16.586,24.105 -27.621,52.751 -34.717,80.046c5.029,1.481 10.97,12.614 13.672,9.472c19.71,-36.409 46.37,-75.797 77.848,-104.264c7.438,-6.738 21.663,-22.949 31.559,-21.061c2.393,0.456 8.301,4.232 8.415,10.53c0.195,10.515 -22.412,24.756 -28.402,30.551c-31.055,29.931 -57.145,66.129 -72.591,104.248c4.525,0.732 4.85,5.68 8.415,7.373c23.095,-42.871 64.795,-80.078 108.349,-107.406c7.731,-4.85 56.153,-34.294 57.862,-11.588c0.993,13.297 -20.915,17.252 -30.502,22.119c-52.392,26.53 -92.008,63.753 -117.822,112.662c12.305,-0.13 17.009,0.651 24.203,-3.157c8.154,-4.313 8.691,-14.339 18.929,-13.672c3.922,0.244 8.284,2.62 9.456,7.357c5.843,23.356 -41.553,39.73 -62.061,29.492c1.547,8.284 3.467,16.178 3.158,26.335c10.986,6.933 35.498,65.38 10.514,64.225c-14.144,-0.651 -8.756,-19.759 -16.813,-28.434c-1.041,7.389 -4.997,11.865 -7.373,17.92c8.35,16.813 5.453,58.414 -13.672,55.794c-15.071,-2.067 -4.378,-19.059 -5.257,-32.634c-7.861,2.67 -17.952,12.207 -31.559,12.631c0.195,18.424 -3.809,38.444 -17.888,36.849c-17.903,-2.019 -2.246,-22.64 -4.199,-37.907c-16.015,-11.182 -34.163,-24.105 -31.559,-51.595c1.204,-12.81 13.916,-30.827 26.286,-29.493c5.517,0.603 9.326,5.713 9.472,10.531c0.391,12.565 -10.774,9.635 -12.613,21.061c-4.411,27.181 26.692,33.61 43.115,23.177c38.932,-24.739 33.789,-91.878 6.315,-126.367c-24.756,-31.087 -64.681,-50.57 -115.706,-47.396c-122.103,7.601 -213.331,95.378 -221.957,215.886c-2.376,33.219 0.716,60.319 13.672,81.087c3.564,-1.693 8.366,-2.165 13.672,-2.116c-13.346,-48.291 0.195,-105.908 18.945,-138.997c5.501,-9.75 15.43,-30.306 28.402,-28.435c18.099,2.605 2.539,22.673 -3.158,30.534c-22.021,30.388 -35.254,85.726 -21.045,134.798c5.046,-0.699 11.573,1.091 13.672,0c-2.653,-17.057 -2.197,-38.427 11.573,-37.906c17.415,0.651 5.794,27.311 11.572,42.122c8.528,2.327 16.39,5.355 24.202,8.415c0.375,-32.146 8.773,-66.309 23.129,-89.502c4.589,-7.39 35.449,-37.517 37.874,-12.631c0.993,10.189 -12.484,15.251 -17.871,23.161c-14.03,20.589 -23.34,58.903 -20.003,91.618c32.731,25.147 60.546,55.225 65.218,108.464c14.616,8.691 22.395,21.777 32.617,36.849c6.901,10.205 23.421,38.183 1.058,36.865c-9.798,-0.57 -14.014,-15.902 -18.929,-23.161c-6.804,-10.026 -10.694,-18.571 -18.946,-24.219c-0.748,7.683 -6.136,10.71 -7.356,17.888c6.51,7.714 37.451,68.896 12.614,69.515c-12.5,0.309 -12.126,-15.788 -15.772,-26.335c-3.89,-11.23 -9.391,-21.077 -14.73,-28.434c-31.852,21.761 -81.592,-1.66 -76.79,-42.123c1.416,-11.963 10.986,-23.16 19.987,-22.119c17.545,2.067 2.23,22.331 2.1,27.393c-0.293,11.393 13.509,24.056 29.459,23.161c16.52,-0.928 31.283,-18.067 32.601,-35.808c2.572,-34.489 -15.56,-62.304 -31.543,-78.971c-23.356,-24.316 -55.924,-42.285 -96.777,-42.122c-34.473,0.13 -68.653,12.548 -96.794,26.318c-66.894,32.764 -118.05,80.892 -123.063,171.663c-2.718,49.073 10.889,95.948 28.402,131.625c17.48,35.628 42.106,56.966 79.948,80.045c1.497,-3.141 -3.825,-6.478 -6.316,-9.489c-14.746,-17.757 -27.099,-39.909 -34.7,-65.283c-2.36,-7.812 -8.578,-26.79 -2.116,-32.65c16.178,-14.648 22.347,21.355 26.302,32.65c11.198,32.048 24.789,47.998 46.273,69.499c8.887,8.903 17.611,24.837 29.46,28.434c10.66,3.239 17.22,-2.002 27.343,2.1c-40.25,-46.306 -87.776,-109.945 -80.989,-203.239c1.058,-14.649 4.622,-54.753 19.987,-54.769c17.269,-0 8.04,24.284 6.299,33.708c-14.128,76.741 17.041,144.515 53.662,187.451c6.559,7.666 25.374,35.351 34.7,37.907c12.614,3.466 25.716,-2.621 38.932,-0c-40.266,-34.831 -85.319,-90.316 -85.205,-165.332c0.017,-16.195 1.644,-51.107 16.83,-50.554c17.138,0.651 7.194,26.742 6.315,40.023c-0.57,8.545 -0.619,16.878 -0,25.277c4.622,63.688 46.615,112.142 89.404,141.113c2.1,2.816 1.595,8.252 5.257,9.473l51.547,-0c-11.052,-16.114 -30.144,-31.088 -42.074,-52.653c-4.46,-8.057 -29.541,-68.995 -5.257,-68.441c10.351,0.228 11.833,15.657 14.73,28.418c7.519,33.317 17.855,41.129 37.874,63.183c7.682,8.48 18.652,26.823 28.402,29.493c12.288,3.385 28.385,-0 41.015,-0l42.074,-0c-3.776,-5.746 -3.662,-16.797 4.215,-18.946c13.412,-3.662 22.494,13.509 29.444,18.946l34.717,-0c1.041,-8.35 -18.506,-16.814 -16.83,-29.493c0.7,-5.322 5.501,-9.635 11.572,-9.472c15.918,0.455 24.74,33.903 35.759,38.965l77.848,-0c-3.19,-11.654 -30.924,-15.804 -29.459,-32.65c0.358,-3.971 3.678,-8.854 9.472,-9.473c10.547,-1.123 20.655,13.412 30.502,21.061c11.604,9.017 23.03,13.64 30.517,21.062l415.495,-0c7.503,-7.471 18.799,-11.963 30.517,-21.062c9.896,-7.682 20.215,-23.046 31.56,-21.061c19.498,3.402 1.172,23.096 -5.274,28.434c-5.827,4.851 -15.82,9.359 -14.73,13.689l77.849,-0c9.765,-7.439 20.654,-39.519 35.775,-38.965c6.298,0.228 10.139,4.785 10.514,10.53c0.765,11.866 -19.287,21.289 -15.772,28.435l34.701,-0c7.064,-8.855 15.023,-21.973 31.559,-17.904c7.487,4.329 0.391,16.016 2.116,17.904l83.089,-0c23.161,-26.091 53.532,-47.006 64.177,-87.403c2.799,-10.644 3.418,-34.375 16.813,-33.691c14.99,0.749 8.61,20.394 6.315,30.517c-8.187,36.459 -24.365,55.909 -44.173,77.946c-4.232,4.72 -10.694,9.066 -9.457,12.631l51.53,-0c5.176,-12.012 12.207,-14.746 21.045,-22.12c33.936,-28.304 69.076,-72.949 72.575,-130.566c1.156,-18.929 -12.321,-63.916 7.373,-63.2c14.095,0.537 15.804,35.303 15.772,51.612c-0.098,65.69 -36.784,117.578 -70.476,150.585c-4.28,4.183 -15.364,11.556 -13.672,13.689l38.916,-0c44.955,-48.357 97.95,-105.713 91.521,-200.082c-0.993,-14.648 -18.018,-58.968 2.099,-58.984c15.56,-0 18.88,39.339 19.987,55.827c6.136,91.52 -36.133,148.421 -75.732,193.766c-1.546,1.758 -4.899,5.469 -4.216,8.415c10.71,-4.558 16.911,1.481 27.36,-2.1c10.091,-3.467 20.769,-19.906 29.444,-28.434c22.265,-21.843 34.147,-38.574 45.231,-70.557c4.215,-12.142 9.993,-44.531 27.36,-31.592c3.418,21.664 -6.071,43.441 -14.73,61.084c-6.608,13.444 -14.697,26.677 -23.161,36.849c-2.474,3.011 -7.178,5.681 -6.299,9.489c38.298,-23.6 62.289,-44.043 79.948,-80.045c17.806,-36.247 31.299,-83.968 28.402,-131.625c-5.566,-91.813 -57.568,-139.485 -125.179,-171.663c-29.199,-13.9 -61.003,-26.465 -96.794,-26.318c-39.86,0.162 -70.849,17.317 -94.645,42.122c-16.178,16.846 -34.163,46.224 -31.575,80.029c1.318,16.927 17.285,33.887 32.617,34.75c15.771,0.895 30.42,-11.638 29.459,-24.219c-0.504,-6.608 -8.642,-6.966 -7.356,-16.846c0.846,-6.592 8.073,-9.554 11.556,-9.489c8.073,0.179 16.813,10.889 17.887,23.177c3.581,40.349 -45.361,62.338 -77.848,41.065c-12.647,7.405 -10.775,55.224 -29.46,54.769c-4.443,-0.114 -9.538,-4.086 -10.514,-9.473c-2.832,-15.706 18.327,-48.942 23.144,-61.084c-1.969,-6.071 -6.461,-9.684 -7.356,-16.846c-8.269,5.681 -12.126,14.16 -18.946,24.219c-5.045,7.471 -9.082,23.356 -19.987,23.161c-21.403,-0.375 -4.313,-27.376 2.116,-36.865c10.58,-15.625 19.483,-28.646 32.617,-37.891c5.03,-37.679 17.188,-63.818 39.958,-86.361c9.261,-9.179 21.794,-12.467 25.244,-22.103c2.409,-6.689 1.205,-16.959 1.074,-22.135c-0.699,-24.691 -12.223,-57.878 -23.144,-71.598c-5.632,-7.064 -17.448,-11.149 -15.788,-21.061c4.069,-24.512 35.221,9.407 37.858,13.688c14.291,23.063 23.275,59.716 23.145,89.502c7.812,-3.06 15.674,-6.088 24.202,-8.415c5.469,-15.348 -5.68,-42.806 12.614,-42.122c12.988,0.472 12.972,21.598 10.531,37.906c2.099,1.091 8.642,-0.699 13.672,0c14.502,-50.26 0.293,-105.338 -21.045,-134.798c-6.592,-9.098 -21.322,-30.387 -1.058,-30.534c10.384,-0.081 22.249,19.271 27.36,28.435c19.515,34.928 29.85,91.943 17.887,138.997c6.185,-0.928 12.223,2.702 15.772,1.058c11.035,-27.197 13.932,-50.374 11.572,-81.087c-9.587,-124.724 -105.583,-208.317 -222.998,-214.828c-52.507,-2.913 -90.479,16.992 -114.665,47.396c-26.839,33.708 -33.138,101.286 6.299,126.367c17.057,10.84 48.649,2.588 43.131,-24.218c-1.871,-9.148 -13.867,-8.513 -12.614,-21.062c0.473,-4.72 3.646,-9.147 10.515,-9.489c12.565,-0.618 22.005,15.674 24.202,24.219c2.865,11.198 -1.155,27.767 -5.257,34.766c-5.648,9.554 -23.275,17.073 -25.244,23.161c-4.183,12.874 15.837,36.067 -5.257,36.849c-15.202,0.569 -16.146,-20.264 -16.83,-36.849c-13.671,0.374 -25.667,-12.517 -31.559,-11.589c0.033,13.558 9.278,30.632 -6.331,31.592c-18.099,1.123 -20.801,-39.144 -12.614,-55.794c-3.06,-5.73 -5.469,-12.094 -8.415,-17.92c-6.071,10.058 -2.246,27.832 -15.771,28.434c-6.039,0.277 -10.629,-4.46 -11.589,-9.473c-3.564,-18.961 15.153,-44.629 22.103,-55.81c-0.195,-9.668 1.676,-17.285 3.158,-25.277c-19.532,7.552 -44.206,0.163 -55.762,-12.647c-3.011,-3.352 -8.626,-10.709 -6.299,-17.903c6.103,-18.88 22.705,4.378 28.402,7.373c7.031,3.727 11.946,3.092 24.186,3.157c-0.521,-9.277 -10.01,-13.704 -15.788,-19.987c-18.848,-20.621 -34.766,-38.623 -55.745,-57.926c-18.685,-17.204 -40.153,-35.156 -65.218,-48.437c-12.663,-6.722 -28.858,-13.233 -16.83,-26.335c21.582,-1.872 38.2,13.07 53.646,23.161c31.722,20.719 59.131,47.802 83.105,74.772c9.473,10.661 20.899,20.573 29.444,30.534c2.816,3.287 3.76,8.528 8.415,9.489c7.747,-20.785 -7.276,-35.726 -17.855,-51.595c-16.325,-24.48 -30.209,-44.239 -50.521,-63.2c-8.626,-8.057 -28.304,-17.936 -27.344,-29.476c0.374,-4.444 5.192,-8.952 9.473,-9.489c9.228,-1.139 23.03,14.307 30.517,21.061c32.78,29.671 58.855,68.685 77.816,105.322c3.483,-0.765 9.749,-7.812 13.688,-11.588c-7.21,-26.725 -19.319,-56.592 -34.717,-78.988c-5.094,-7.405 -14.957,-16.878 -13.671,-25.277c0.862,-5.647 7.226,-9.456 10.53,-9.472c6.95,-0.033 16.276,13.672 19.987,18.961c17.204,24.577 28.679,50.228 35.759,81.088c4.541,0.765 10.937,-4.981 15.771,-7.373c-18.294,-71.631 -47.819,-136.703 -103.092,-180.079c-51.416,-40.364 -121.599,-77.197 -211.426,-71.614c-36.865,2.295 -62.63,15.169 -87.321,31.592c16.471,17.92 32.878,35.905 46.289,56.868c22.998,-0.097 67.692,-7.161 67.334,13.688c-0.407,21.778 -42.594,-0.423 -59.977,9.489c3.336,7.178 1.741,19.32 2.116,29.476c12.109,3.825 29.02,6.039 28.401,18.962c-0.748,15.722 -21.305,6.885 -32.617,3.157c-13.851,40.023 -90.055,58.073 -114.648,17.904Zm45.231,-163.232c35.758,-30.795 85.498,-43.881 146.208,-38.965c54.817,4.443 102.815,24.837 139.908,46.338c41.146,23.844 72.364,49.674 97.836,88.46c24.479,37.272 47.054,78.857 55.745,130.583c103.32,-20.346 182.275,24.495 233.529,75.813c48.633,48.682 86.8,145.443 56.803,243.262c51.042,21.501 100.163,42.529 133.594,82.145c32.471,38.477 52.816,96.208 45.231,165.332c-6.771,61.833 -26.253,114.388 -63.119,152.702c-33.496,34.815 -83.463,64.99 -143.05,71.615c-29.606,3.287 -62.955,-0 -94.677,-0c-405.632,-0.049 -812.777,0.032 -1223.37,-0c-34.407,-0 -66.715,2.522 -94.677,-0c-27.556,-2.491 -52.133,-11.377 -72.592,-21.062c-65.511,-31.087 -110.4,-79.101 -128.336,-160.074c-5.86,-26.514 -11.849,-55.713 -9.457,-86.345c4.411,-56.836 27.523,-102.995 58.903,-133.756c32.129,-31.478 73.454,-51.791 122.022,-69.499c-8.447,-27.995 -13.005,-60.97 -10.514,-91.618c5.729,-70.768 36.149,-123.096 79.931,-165.332c49.87,-48.079 133.447,-80.876 219.857,-63.183c18.18,-69.499 47.477,-136.426 98.893,-181.137c48.438,-42.138 121.712,-80.354 198.812,-85.302c63.623,-4.069 115.495,12.63 152.523,40.023"/></g></g><path d="M995.508,54.319c13.705,-4.672 23.226,0.618 22.087,11.588c-2.621,25.489 -50.423,-1.92 -22.087,-11.588"/><path d="M1048.11,55.377c13.656,-4.232 35.808,2.539 53.63,8.431c9.619,3.157 37.353,10.595 35.775,24.202c-2.295,19.792 -40.951,-2.897 -53.646,-6.315c-9.359,-2.507 -44.206,-2.393 -45.231,-14.73c-0.57,-6.787 2.962,-9.586 9.472,-11.588"/><path d="M1263.75,58.534c13.541,-1.172 55.029,-6.494 53.645,12.63c-1.106,15.365 -47.233,6.674 -65.218,10.531c-9.163,1.969 -25.797,10.531 -26.302,-5.257c-0.488,-15.072 20.199,-16.39 37.875,-17.904"/><path d="M945.02,68.007c5.957,-0.716 13.362,1.286 13.672,9.489c0.488,13.135 -21.257,17.269 -32.617,23.161c-8.708,4.524 -38.868,30.387 -43.116,10.53c-2.49,-11.556 18.588,-22.51 25.244,-26.318c9.261,-5.339 25.407,-15.495 36.817,-16.862"/><path d="M1378.4,68.007c9.066,-2.376 27.425,8.756 39.974,15.804c8.838,4.948 28.89,15.12 27.344,26.318c-2.963,21.712 -34.603,-5.045 -43.116,-9.489c-9.879,-5.127 -31.494,-10.335 -32.617,-21.045c-0.732,-7.129 4.248,-10.498 8.415,-11.588"/><path d="M853.5,133.306c3.499,-1.041 12.288,-2.718 14.729,5.257c3.663,11.963 -21.061,34.636 -31.559,33.708c-16.455,-1.481 -7.942,-17.773 0,-25.277c4.346,-4.117 11.768,-12.19 16.83,-13.688"/><path d="M1466.77,133.29c1.171,-0.439 3.58,-1.449 6.315,-1.042c7.291,1.107 31.95,22.233 28.401,33.708c-5.729,18.522 -39.974,-9.57 -41.015,-21.061c-0.684,-7.324 1.334,-9.652 6.299,-11.605"/><path d="M975.521,138.563c5.567,17.595 -6.966,17.741 -23.144,24.219c-10.596,4.248 -26.482,14.291 -29.46,0c-3.206,-15.446 26.058,-21.696 38.932,-27.376c3.923,-1.725 10.189,-0.163 13.672,3.157"/><path d="M1360.52,135.406c9.277,-2.051 49.609,13.574 45.247,28.434c-3.825,12.94 -18.978,2.832 -28.418,-1.058c-11.865,-4.866 -23.144,-5.403 -25.244,-12.63c-3.353,-11.621 3.467,-13.656 8.415,-14.746"/><path d="M1041.8,199.647c-9.456,5.583 -42.204,16.456 -41.015,-3.157c0.878,-14.73 53.092,-26.856 41.015,3.157"/><path d="M1134.36,361.822c4.476,0.049 14.323,-1.367 14.73,9.473c0.472,12.288 -16.13,12.76 -32.601,14.746c-15.869,1.92 -45.882,10.856 -47.331,-5.274c-1.481,-16.325 46.973,-19.189 65.202,-18.945"/><path d="M1252.18,390.256c-14.225,0.814 -25.879,-3.646 -39.974,-5.273c-13.916,-1.595 -31.331,0.716 -32.601,-11.589c-1.953,-18.701 26.563,-11.263 45.232,-8.415c22.135,3.37 47.64,6.332 27.343,25.277"/><path d="M592.627,391.314c6.852,-1.253 13.542,0.033 14.714,7.357c2.213,13.704 -14.616,16.878 -19.971,21.061c-21.012,16.406 -36.426,44.352 -47.347,73.714c-3.597,9.701 -4.215,25.196 -13.672,26.335c-15.657,1.888 -12.728,-16.992 -8.415,-29.492c13.77,-39.893 35.954,-82.992 72.592,-98.975c0.553,-0.244 1.497,0.098 2.099,0"/><path d="M1728.69,391.314c7.438,-2.425 21.663,6.185 30.501,13.688c24.235,20.508 40.642,52.539 51.546,84.229c4.9,14.241 6.397,30.192 -6.315,30.55c-11.263,0.309 -12.011,-14.909 -15.771,-25.277c-10.026,-27.685 -27.979,-60.172 -46.273,-74.772c-3.109,-2.458 -38.802,-20.28 -13.688,-28.418"/><path d="M1158.56,394.472c12.777,-0.358 72.185,-2.67 69.418,17.903c-2.181,16.293 -41.374,5.371 -63.119,5.257c-18.375,-0.097 -66.227,12.598 -64.16,-8.431c1.416,-14.257 37.435,-14.16 57.861,-14.729"/><path d="M1058.63,410.259c8.414,-0.618 15.625,-2.327 16.829,8.415c1.221,10.807 -7.764,11.345 -18.945,13.705c-9.831,2.067 -26.547,7.047 -24.186,-9.489c1.432,-9.978 15.511,-11.833 26.302,-12.631"/><path d="M1261.64,410.259c7.226,-2.262 32.226,1.693 34.716,10.531c1.612,5.745 -1.936,13.298 -6.298,14.746c-5.225,1.742 -26.823,-2.409 -31.576,-5.257c-8.675,-5.225 -5.159,-17.415 3.158,-20.02"/><path d="M995.508,427.105c9.57,-1.009 16.602,-0.862 17.887,7.373c2.442,15.788 -19.27,14.763 -23.144,15.804c-29.216,7.78 -68.327,32.503 -92.562,52.653c-6.12,5.078 -14.713,12.175 -18.945,16.846c-4.964,5.485 -10.71,28.369 -27.344,23.161c-16.553,-5.16 3.516,-30.485 11.572,-38.949c13.656,-14.388 34.213,-30.078 58.903,-45.296c21.452,-13.216 48.015,-28.857 73.633,-31.592"/><path d="M1322.66,427.105c8.642,-3.206 29.182,3.304 38.932,7.373c36.181,15.121 82.91,47.152 104.134,69.499c7.829,8.268 20.817,23.03 17.887,32.65c-0.602,1.985 -5.631,6.103 -6.315,6.315c-15.836,4.948 -23.519,-18.897 -26.302,-22.119c-3.808,-4.395 -12.956,-12.907 -18.929,-17.888c-20.443,-17.057 -63.232,-44.629 -92.578,-52.653c-5.925,-1.627 -22.428,1.481 -24.202,-11.588c-0.879,-6.608 1.643,-9.457 7.373,-11.589"/><path d="M1146.99,438.694c116.862,-6.201 227.865,43.619 293.474,104.248c10.498,9.7 22.298,24.544 33.675,38.965c5.42,6.868 32.763,32.926 24.186,43.18c-13.428,16.097 -35.401,-21.582 -39.974,-27.376c-12.663,-16.065 -22.656,-28.809 -33.659,-38.965c-61.637,-56.95 -166.113,-105.143 -285.075,-97.949c-92.041,5.599 -182.047,48.763 -234.57,96.891c-17.627,16.162 -32.634,39.241 -50.488,61.084c-7.178,8.773 -17.025,14.925 -24.203,6.315c-8.024,-9.603 19.32,-38.005 24.203,-44.222c38.737,-49.382 79.248,-80.013 145.149,-107.422c21.045,-8.74 42.334,-17.09 67.334,-23.161c24.805,-6.038 54.379,-10.237 79.948,-11.588"/><path d="M869.287,668.267c40.056,65.202 105.632,112.386 185.124,140.056c27.702,9.651 57.227,18.164 89.404,18.961c49.268,1.205 88.51,-4.346 130.453,-18.961c79.72,-27.751 146.793,-76.498 185.14,-140.056c-32.031,-52.523 -78.841,-90.25 -133.594,-120.052c9.229,60.384 -8.903,106.755 -36.816,139.014c-28.142,32.487 -66.748,55.81 -124.138,55.81c-57.975,0 -95.247,-22.542 -124.121,-55.81c-27.897,-32.145 -47.884,-77.165 -37.874,-137.956c-0.049,-0.651 -0.147,-1.253 -1.058,-1.058c-53.565,30.615 -100.912,67.464 -132.52,120.052Zm159.88,-132.682c-28.906,99.561 45.622,186.344 134.652,186.393c91.943,0.033 163.541,-86.946 135.693,-186.393c-12.109,-2.279 -20.182,-8.594 -32.617,-10.531c28.157,79.525 -24.04,145.801 -94.662,152.686c-5.387,0.537 -11.637,0.57 -16.845,-0c-70.459,-7.601 -120.573,-70.638 -93.604,-152.686l-2.116,0c-10.693,2.979 -19.205,8.155 -30.501,10.531Zm65.218,-20.02c-9.18,15.284 -18.929,30.453 -18.929,52.653c0,47.543 36.589,80.241 75.732,85.303c77.898,10.091 130.502,-73.714 83.106,-137.956c-46.078,-9.098 -93.864,-9.114 -139.909,0Zm417.611,212.728c-24.447,10.58 -25.782,-26.871 -37.858,-38.965c-32.325,43.116 -73.812,83.399 -125.179,110.58c-51.693,27.344 -110.726,49.479 -184.099,49.479c-107.715,0.016 -192.594,-44.938 -253.499,-97.917c-21.37,-18.587 -41.602,-38.932 -55.762,-62.142c-13.834,10.661 -13.802,49.887 -38.916,38.965c-4.997,-11.507 3.353,-23.681 8.415,-32.649c30.55,-54.069 67.334,-99.642 118.864,-137.956c34.945,-25.977 76.888,-47.835 126.221,-60.026c3.678,-0.895 8.105,-0.863 11.588,-2.1c31.039,-10.97 78.223,-10.368 116.748,-7.373c28.19,2.197 47.998,5.876 70.492,12.63c94.319,28.369 170.996,91.472 218.782,166.39c5.876,9.196 10.449,20.117 15.788,29.492c5.208,9.148 13.9,20.378 8.415,31.592"/><path d="M1234.29,515.565c47.396,64.242 -5.208,148.047 -83.106,137.956c-39.143,-5.062 -75.732,-37.76 -75.732,-85.303c0,-22.2 9.749,-37.369 18.929,-52.653c46.045,-9.114 93.831,-9.098 139.909,0" style="fill:#2d4e53;"/><path d="M1059.67,525.038l2.1,0c-26.937,82.064 23.161,145.101 93.636,152.702c5.192,0.57 11.442,0.537 16.829,-0c70.622,-6.885 122.819,-73.161 94.662,-152.702c12.451,1.953 20.508,8.268 32.617,10.547c27.848,99.447 -43.75,186.426 -135.693,186.393c-89.03,-0.049 -163.558,-86.832 -134.652,-186.393c11.296,-2.376 19.808,-7.552 30.501,-10.547" style="fill:#bc9c21;"/><path d="M628.386,539.784c3.353,-1.041 12.337,-2.539 14.73,5.274c3.548,11.588 -12.549,25.39 -15.772,34.749c-2.767,7.991 -1.693,22.412 -13.688,22.119c-12.354,-0.309 -12.712,-16.016 -7.357,-30.55c3.451,-9.342 14.795,-29.281 22.087,-31.592"/><path d="M1691.89,539.784c12.516,-4.915 24.902,16.406 30.501,31.592c3.988,10.84 3.89,42.692 -14.73,28.434c-4.769,-3.646 -2.555,-9.114 -6.315,-20.003c-3.727,-10.807 -26.676,-33.268 -9.456,-40.023"/><path d="M1001.82,548.215c0.895,-0.195 0.993,0.407 1.042,1.058c-10.01,60.791 9.993,105.811 37.874,137.956c28.874,33.268 66.146,55.794 124.138,55.81c57.373,0 95.979,-23.323 124.121,-55.81c27.929,-32.259 46.045,-78.63 36.816,-139.014c54.753,29.785 101.563,67.529 133.594,120.052c-38.347,63.558 -105.42,112.305 -185.14,140.056c-41.943,14.615 -81.169,20.166 -130.436,18.961c-32.194,-0.797 -61.703,-9.31 -89.405,-18.961c-79.508,-27.67 -145.084,-74.854 -185.14,-140.056c31.625,-52.588 78.955,-89.437 132.536,-120.052" style="fill:#fef5f5;"/><path d="M812.468,560.845c22.77,-4.899 10.693,31.967 -6.299,31.592c-20.899,-0.439 -5.176,-29.118 6.299,-31.592"/><path d="M1510.94,560.845c14.648,-3.792 32.796,29.818 12.646,31.592c-5.648,0.505 -21.012,-8.659 -21.045,-21.061c0,-6.185 3.37,-9.212 8.399,-10.531"/><path d="M754.623,667.209c-3.239,-14.55 13.362,-57.763 26.302,-58.968c5.289,-0.488 10.384,3.532 11.556,6.315c4.411,10.417 -9.815,23.291 -14.73,36.866c-4.509,12.5 -8.138,28.092 -23.128,15.787"/><path d="M1574.06,667.209c-13.688,11.735 -18.408,-1.725 -23.128,-14.746c-4.899,-13.476 -18.945,-27.913 -14.73,-37.907c8.301,-19.661 25.554,7.471 30.485,17.904c5.681,11.93 9.961,23.698 7.373,34.749"/><path d="M364.356,687.229c5.127,-1.237 12.174,0.277 13.672,6.315c2.539,10.303 -9.88,22.135 -14.714,30.534c-6.364,11.019 -12.109,22.933 -13.688,31.592c-2.246,12.255 -3.272,33.138 -18.929,21.061c-10.693,-8.252 1.676,-39.388 6.315,-49.496c4.606,-10.058 16.048,-37.288 27.344,-40.006"/><path d="M1958.01,687.229c12.923,-4.085 24.886,20.573 32.617,36.849c5.925,12.467 23.324,56.738 -1.041,54.769c-10.238,-0.83 -8.285,-9.717 -10.531,-22.119c-2.067,-11.443 -6.51,-21.924 -12.614,-32.65c-5.664,-9.945 -26.774,-31.071 -8.431,-36.849"/><path d="M473.763,786.203c-9.733,-10.872 0.326,-44.612 13.672,-45.28c17.757,-0.862 9.229,14.568 5.257,27.377c-3.483,11.23 -2.262,23.812 -18.929,17.903"/><path d="M1837.05,741.981c12.646,-4.036 26.904,21.534 22.102,37.907c-1.839,6.218 -12.288,10.954 -18.945,5.274c-1.53,-1.319 -3.255,-12.679 -4.215,-15.804c-2.556,-8.399 -13.005,-22.884 1.058,-27.377"/><path d="M853.5,758.827c13.151,-3.418 33.577,24.333 42.073,32.65c13.395,13.135 26.481,24.414 39.974,32.65c9.098,5.55 21.533,7.617 19.987,18.961c-2.669,19.483 -30.566,-0.325 -38.916,-6.331c-17.09,-12.289 -33.496,-27.832 -49.446,-43.164c-7.129,-6.869 -36.996,-28.679 -13.672,-34.766"/><path d="M1469.94,758.827c7.439,-1.383 12.989,2.214 13.656,8.431c1.139,10.303 -15.299,19.808 -22.087,26.335c-16.503,15.853 -30.126,31.331 -50.488,45.28c-7.959,5.436 -35.368,22.396 -37.874,4.215c-1.286,-9.261 8.366,-12.663 18.929,-18.961c25.293,-15.088 52.344,-49.691 74.691,-65.3c0.569,-0.39 2.457,0.13 3.173,0"/><path d="M687.305,803.065c18.815,-5.989 28.092,31.983 11.556,33.692c-13.444,1.383 -26.481,-28.955 -11.556,-33.692"/><path d="M1634.03,803.065c24.609,-7.568 11.409,34.099 -3.158,33.692c-19.059,-0.537 -6.803,-30.632 3.158,-33.692"/><path d="M335.954,817.795c18.555,-7.34 13.753,14.405 13.672,29.492c-0.081,15.495 2.246,25.114 -5.257,27.393c-23.552,7.096 -21.013,-51.888 -8.415,-56.885"/><path d="M1984.31,817.795c23.552,-8.431 24.089,64.144 0,56.885c-7.601,-2.311 -5.322,-12.256 -5.257,-25.293c0.098,-15.934 -6.071,-27.523 5.257,-31.592"/><path d="M992.351,856.776c8.154,-2.913 44.303,11.882 46.289,18.946c6.852,24.414 -24.431,10.188 -33.676,6.331c-6.949,-2.913 -19.401,-4.98 -19.97,-14.746c-0.375,-6.185 4.215,-9.408 7.357,-10.531"/><path d="M1327.91,856.776c4.752,-0.748 14.941,-2.083 15.771,8.415c0.765,9.603 -9.163,12.337 -19.987,16.862c-9.098,3.792 -36.865,18.115 -33.642,-4.215c1.22,-8.562 28.45,-19.581 37.858,-21.062"/><path d="M232.878,983.144c-1.27,-8.464 0.456,-15.625 -0,-22.12c-1.709,-23.421 -11.703,-38.167 -26.302,-50.553c-10.238,-8.659 -37.24,-21.37 -57.862,-14.73c-9.7,3.125 -23.518,20.687 -21.044,31.592c1.285,5.583 9.961,6.527 14.729,11.572c3.939,4.167 4.427,12.045 6.315,20.02c2.637,11.084 5.062,17.35 -9.472,20.003c-3.841,28.939 -52.572,29.785 -53.646,-2.1c-8.464,6.055 -30.485,13.314 -29.46,-4.215c0.472,-8.04 17.709,-19.727 30.518,-18.962c15.82,0.961 16.781,17.465 25.244,25.277c11.996,-4.069 7.438,-27.669 3.141,-32.633c-17.92,-20.834 -72.721,-19.727 -87.288,12.63c-14.648,32.487 3.988,77.653 37.858,70.556c-8.122,-10.172 -7.422,-26.709 5.257,-26.334c15.723,0.456 16.732,35.14 41.032,26.334c-5.81,-10.953 -1.253,-21.354 8.415,-21.061c11.149,0.326 11.116,12.565 15.771,21.061l29.46,0c4.036,-15.641 -14.03,-23.925 -12.63,-36.865c0.634,-5.729 4.476,-9.717 11.588,-9.472c16.032,0.553 19.857,29.622 25.244,46.337l25.228,0c-5.127,-9.293 -25.911,-71.777 -3.141,-72.672c12.549,-0.488 11.979,16.341 13.672,28.434c3.808,27.344 12.044,50.261 43.131,44.238c-18.31,-12.011 -32.356,-23.095 -35.758,-46.337Zm-127.295,-67.4c11.8,-31.136 34.131,-52.392 77.832,-41.064c25.195,6.527 52.132,25.911 64.176,51.595c7.911,16.878 3.793,34.88 7.357,54.769c1.481,8.171 8.578,18.164 15.788,24.202c7.878,6.625 19.645,8.252 25.244,15.804c3.923,5.29 7.764,15.593 6.315,20.02c-5.208,15.804 -81.673,7.878 -100.976,7.373c-31.641,-0.863 -64.681,1.042 -99.935,1.042c-21.794,-0 -51.091,3.515 -64.177,-1.042c-8.968,-3.125 -20.8,-15.299 -25.244,-22.119c-38.216,-58.757 21.094,-142.253 93.62,-110.58"/><g><clipPath id="_clip2"><rect x="2034.1" y="871.522" width="301.986" height="178.825"/></clipPath><g clip-path="url(#_clip2)"><path d="M2189.45,895.741c-6.933,-2.457 -22.607,-1.302 -28.401,0c-30.664,6.82 -54.606,33.496 -56.82,66.341c-0.391,6.202 1.367,14.03 0,22.119c-4.167,24.903 -22.331,35.629 -35.758,46.338c8.496,0.765 13.72,-1.725 22.086,-1.058c4.476,-6.445 9.961,-8.528 13.672,-14.746c10.433,-17.464 2.946,-59.684 22.103,-57.926c22.103,2.051 0.358,63.118 -4.216,72.672l25.245,0c5.273,-17.138 9.7,-46.891 26.318,-46.337c6.836,0.211 10.189,4.134 10.498,10.53c0.586,11.8 -16.357,20.606 -12.63,35.807l29.476,0c4.492,-9 5.306,-21.582 16.813,-21.061c9.245,0.407 12.793,10.726 7.357,21.061c24.69,8.708 25.651,-27.034 42.073,-26.334c12.223,0.537 11.751,16.683 4.232,26.334c6.315,-0.699 10.254,0.944 15.771,1.058c23.731,-12.239 34.359,-44.401 22.087,-71.614c-14.16,-31.462 -68.783,-34.131 -87.305,-12.63c-5.289,6.119 -8.268,31.152 4.216,32.633c6.982,-9.261 9,-24.935 25.244,-25.277c12.842,-0.276 30.192,11.67 29.443,21.062c-1.22,15.446 -21.012,7.438 -29.443,2.115c-1.091,31.885 -49.821,31.039 -53.646,2.1c-21.24,-1.921 -8.577,-31.038 -2.116,-41.064c25.212,-4.46 7.666,-37.175 -6.299,-42.123Zm41.016,20.003c33.024,-11.1 63.704,-6.184 85.205,14.747c21.566,20.979 28.158,67.089 9.473,95.833c-5.925,9.098 -15.251,14.209 -24.186,22.119c-74.642,1.367 -142.839,1.042 -217.758,1.042c-16.211,-0 -44.384,2.295 -48.388,-7.373c-1.807,-4.346 2.392,-15.788 6.299,-21.062c5.501,-7.405 16.373,-8.707 24.218,-14.746c6.836,-5.273 15.251,-16.585 16.813,-24.218c1.693,-8.22 -0.504,-17.058 0,-24.219c3.223,-44.938 41.732,-81.152 84.164,-85.303c36.523,-3.564 53.369,12.451 64.16,43.18"/></g></g><path d="M1004.96,955.767c-12.597,6.201 -25.781,-0.651 -37.858,-4.215c-11.995,-3.548 -24.267,-8.382 -35.758,-12.647c-25.407,-9.407 -44.32,-23.991 -63.119,-32.633c-7.552,-3.483 -16.422,-2.621 -17.887,-11.589c-1.009,-6.201 3.288,-15.576 10.531,-14.746c14.876,1.709 22.981,10.531 35.758,17.904c19.548,11.295 47.347,22.965 74.691,31.592c16.178,5.11 43.245,5.973 33.642,26.334"/><path d="M1323.7,955.767c-10.775,-16.471 13.168,-20.589 29.476,-25.276c15.853,-4.574 26.335,-8.838 38.9,-13.689c36.1,-13.932 48.047,-28.499 70.475,-35.807c7.145,-2.327 14.795,2.279 15.788,8.415c2.165,13.493 -9.489,13.541 -16.83,16.862c-19.238,8.691 -38.639,23.193 -64.16,32.633c-11.458,4.248 -23.633,9.066 -35.774,12.647c-11.605,3.418 -25.44,10.465 -37.875,4.215"/><path d="M1096.49,882.053c0.586,-0.212 0.83,-1.253 2.099,-1.058c28.304,3.988 70.655,8.692 107.308,4.216c12.484,-1.53 30.567,-9.913 33.659,3.157c5.192,21.778 -54.883,22.054 -74.674,22.103c-17.237,0.065 -73.845,-0.602 -75.733,-16.846c-0.879,-7.422 2.344,-9.879 7.341,-11.572"/><path d="M196.061,942.063c20.215,-1.97 1.596,-36.442 -15.787,-29.476c-18.262,7.308 6.966,30.338 15.787,29.476Zm72.575,87.418c-31.087,6.023 -39.323,-16.894 -43.131,-44.238c-1.693,-12.093 -1.123,-28.922 -13.672,-28.434c-22.77,0.895 -1.986,63.379 3.141,72.672l-25.228,0c-5.387,-16.715 -9.212,-45.784 -25.244,-46.337c-7.112,-0.245 -10.954,3.743 -11.588,9.472c-1.4,12.94 16.666,21.224 12.63,36.865l-29.46,0c-4.655,-8.496 -4.622,-20.735 -15.771,-21.061c-9.668,-0.293 -14.225,10.108 -8.415,21.061c-24.3,8.806 -25.309,-25.878 -41.032,-26.334c-12.679,-0.375 -13.379,16.162 -5.257,26.334c-33.87,7.097 -52.506,-38.069 -37.858,-70.556c14.567,-32.357 69.368,-33.464 87.288,-12.63c4.297,4.964 8.855,28.564 -3.141,32.633c-8.463,-7.812 -9.424,-24.316 -25.244,-25.277c-12.809,-0.765 -30.046,10.922 -30.518,18.962c-1.025,17.529 20.996,10.27 29.46,4.215c1.074,31.885 49.805,31.039 53.646,2.1c14.534,-2.653 12.109,-8.919 9.472,-20.003c-1.888,-7.975 -2.376,-15.853 -6.315,-20.02c-4.768,-5.045 -13.444,-5.989 -14.729,-11.572c-2.474,-10.905 11.344,-28.467 21.044,-31.592c20.622,-6.64 47.624,6.071 57.862,14.73c14.599,12.386 24.593,27.132 26.302,50.553c0.456,6.495 -1.27,13.656 -0,22.12c3.402,23.242 17.448,34.326 35.758,46.337" style="fill:#f6f6f1;"/><path d="M2131.59,932.59c2.588,20.036 34.717,0.912 31.559,-13.688c-1.985,-9.082 -9.521,-7.471 -14.729,-6.315c-10.043,2.213 -18.067,10.514 -16.83,20.003Zm64.16,5.274c-6.445,10.026 -19.14,39.143 2.1,41.064c3.841,28.939 52.571,29.785 53.646,-2.1c8.431,5.323 28.222,13.331 29.459,-2.115c0.749,-9.392 -16.601,-21.338 -29.459,-21.062c-16.228,0.342 -18.246,16.016 -25.244,25.277c-12.468,-1.481 -9.489,-26.514 -4.2,-32.633c18.506,-21.501 73.145,-18.832 87.305,12.63c12.256,27.213 1.644,59.375 -22.087,71.614c-5.517,-0.114 -9.472,-1.757 -15.771,-1.058c7.503,-9.651 7.991,-25.797 -4.216,-26.334c-16.422,-0.7 -17.399,35.042 -42.089,26.334c5.436,-10.335 1.888,-20.654 -7.373,-21.061c-11.508,-0.521 -12.305,12.061 -16.814,21.061l-29.459,0c-3.727,-15.201 13.2,-24.007 12.63,-35.807c-0.326,-6.396 -3.678,-10.319 -10.514,-10.53c-16.618,-0.554 -21.045,29.199 -26.319,46.337l-25.228,0c4.574,-9.554 26.319,-70.621 4.2,-72.672c-19.157,-1.758 -11.654,40.462 -22.087,57.926c-3.711,6.218 -9.212,8.301 -13.672,14.746c-8.382,-0.667 -13.59,1.823 -22.103,1.058c13.444,-10.709 31.592,-21.435 35.775,-46.338c1.367,-8.089 -0.407,-15.917 0,-22.119c2.197,-32.845 26.139,-59.521 56.803,-66.341c5.811,-1.302 21.485,-2.457 28.402,0c13.981,4.948 31.511,37.663 6.315,42.123" style="fill:#f6f6f1;"/><path d="M180.274,912.587c17.383,-6.966 36.002,27.506 15.787,29.476c-8.821,0.862 -34.049,-22.168 -15.787,-29.476"/><path d="M2148.42,912.587c5.192,-1.156 12.76,-2.767 14.729,6.315c3.158,14.6 -28.971,33.724 -31.559,13.688c-1.237,-9.489 6.787,-17.79 16.83,-20.003"/><path d="M668.36,954.693c12.597,-5.127 17.903,11.247 26.302,21.078c7.519,8.789 20.41,16.471 19.987,25.276c-0.423,8.968 -9.75,11.491 -17.888,8.415c-5.241,-1.969 -11.783,-11.654 -13.672,-13.688c-8.268,-8.92 -32.633,-33.757 -14.729,-41.081"/><path d="M1134.36,954.693c5.355,-1.27 16.553,2.962 27.36,3.174c14.518,0.309 40.088,-11.328 42.057,5.257c2.686,22.266 -78.271,22.152 -78.873,2.116c-0.244,-7.682 4.052,-9.229 9.456,-10.547"/><path d="M1651.92,954.693c5.013,-1.53 12.988,-0.83 14.713,6.331c2.849,11.817 -13.948,27.116 -21.045,34.75c-2.457,2.653 -28.759,29.15 -31.559,6.315c-1.058,-8.822 12.614,-17.269 17.904,-23.161c7.845,-8.756 11.247,-21.533 19.987,-24.235"/><path d="M1631.93,978.928c-5.306,5.892 -18.962,14.339 -17.904,23.161c2.8,22.835 29.102,-3.646 31.559,-6.315c7.097,-7.634 23.894,-22.933 21.029,-34.75c-1.709,-7.161 -9.684,-7.861 -14.713,-6.331c-8.724,2.702 -12.142,15.479 -19.971,24.235Zm-507.048,-13.688c0.619,20.036 81.576,20.15 78.89,-2.116c-1.969,-16.585 -27.539,-4.948 -42.073,-5.257c-10.791,-0.212 -21.989,-4.444 -27.344,-3.174c-5.404,1.318 -9.7,2.865 -9.473,10.547Zm-441.797,30.534c1.872,2.034 8.431,11.719 13.672,13.688c8.138,3.076 17.465,0.553 17.888,-8.415c0.423,-8.805 -12.468,-16.487 -19.987,-25.276c-8.399,-9.831 -13.705,-26.205 -26.302,-21.078c-17.904,7.324 6.445,32.161 14.729,41.081Zm406.039,-102.149c1.904,16.244 58.512,16.911 75.749,16.846c19.791,-0.049 79.85,-0.325 74.674,-22.103c-3.092,-13.07 -21.175,-4.687 -33.659,-3.157c-36.653,4.476 -79.004,-0.228 -107.308,-4.216c-1.269,-0.195 -1.53,0.846 -2.099,1.058c-4.997,1.693 -8.22,4.167 -7.357,11.572Zm272.445,57.927c12.141,-3.581 24.316,-8.399 35.774,-12.647c25.521,-9.44 44.906,-23.942 64.16,-32.633c7.341,-3.321 18.995,-3.369 16.83,-16.862c-0.977,-6.136 -8.643,-10.742 -15.772,-8.415c-22.444,7.308 -34.391,21.875 -70.491,35.807c-12.565,4.851 -23.047,9.115 -38.916,13.689c-16.276,4.687 -40.235,8.805 -29.46,25.276c12.435,6.25 26.27,-0.797 37.875,-4.215Zm-390.251,-22.119c-27.344,-8.627 -55.143,-20.297 -74.691,-31.592c-12.777,-7.373 -20.882,-16.195 -35.758,-17.904c-7.243,-0.83 -11.54,8.545 -10.531,14.746c1.449,8.968 10.335,8.106 17.887,11.589c18.799,8.642 37.712,23.226 63.119,32.633c11.491,4.265 23.763,9.115 35.758,12.647c12.077,3.564 25.261,10.416 37.858,4.215c9.603,-20.361 -17.464,-21.224 -33.642,-26.334Zm318.717,-51.595c-3.206,22.33 24.561,8.007 33.659,4.215c10.84,-4.525 20.752,-7.259 19.987,-16.862c-0.814,-10.498 -11.019,-9.163 -15.771,-8.415c-9.408,1.481 -36.638,12.5 -37.875,21.062Zm-305.045,-10.531c0.569,9.766 13.021,11.833 19.97,14.746c9.245,3.857 40.528,18.083 33.676,-6.331c-1.986,-7.064 -38.135,-21.859 -46.289,-18.946c-3.142,1.123 -7.732,4.346 -7.357,10.531Zm994.059,-17.92c-0.065,13.037 -2.344,22.998 5.257,25.293c24.089,7.259 23.552,-65.316 0,-56.885c-11.312,4.069 -5.176,15.658 -5.257,31.592Zm-1634.68,25.293c7.503,-2.279 5.176,-11.898 5.257,-27.393c0.081,-15.087 4.883,-36.832 -13.672,-29.492c-12.598,4.997 -15.137,63.981 8.415,56.885Zm1286.51,-37.923c14.551,0.423 27.751,-41.26 3.141,-33.692c-9.944,3.06 -22.217,33.155 -3.141,33.692Zm-932.015,-0c16.536,-1.709 7.259,-39.681 -11.572,-33.692c-14.909,4.737 -1.872,35.092 11.572,33.692Zm767.904,-77.93c-22.347,15.609 -49.382,50.212 -74.691,65.3c-10.563,6.298 -20.199,9.7 -18.929,18.961c2.506,18.181 29.915,1.221 37.874,-4.215c20.362,-13.949 33.985,-29.427 50.488,-45.28c6.788,-6.527 23.226,-16.032 22.103,-26.335c-0.7,-6.201 -6.217,-9.814 -13.672,-8.431c-0.716,0.13 -2.604,-0.39 -3.173,0Zm-599.593,34.766c15.95,15.332 32.356,30.875 49.446,43.164c8.35,6.006 36.247,25.814 38.916,6.331c1.546,-11.344 -10.889,-13.411 -19.987,-18.961c-13.493,-8.236 -26.579,-19.515 -39.974,-32.65c-8.496,-8.317 -28.939,-36.068 -42.073,-32.65c-23.324,6.087 6.543,27.897 13.672,34.766Zm968.815,-24.235c0.96,3.125 2.685,14.485 4.215,15.804c6.657,5.68 17.106,0.944 18.945,-5.274c4.802,-16.373 -9.456,-41.943 -22.086,-37.907c-14.079,4.493 -3.63,18.978 -1.074,27.377Zm-1343.3,-1.058c3.972,-12.809 12.5,-28.239 -5.257,-27.36c-13.346,0.651 -23.405,34.391 -13.672,45.263c16.667,5.909 15.446,-6.673 18.929,-17.903Zm1473.73,-44.222c6.12,10.726 10.547,21.207 12.63,32.65c2.246,12.402 0.293,21.289 10.531,22.119c24.365,1.969 6.966,-42.302 1.041,-54.769c-7.747,-16.276 -19.677,-40.934 -32.617,-36.849c-18.343,5.778 2.767,26.904 8.415,36.849Zm-1629.41,3.157c-4.639,10.108 -17.008,41.244 -6.315,49.496c15.657,12.077 16.683,-8.806 18.929,-21.061c1.579,-8.659 7.324,-20.573 13.688,-31.592c4.834,-8.399 17.253,-20.231 14.714,-30.534c-1.498,-6.038 -8.545,-7.552 -13.672,-6.315c-11.296,2.718 -22.738,29.948 -27.344,40.006Zm1229.69,-94.775c-4.948,-10.433 -22.201,-37.565 -30.502,-17.904c-4.232,9.994 9.831,24.431 14.73,37.907c4.72,13.021 9.44,26.481 23.128,14.746c2.588,-11.051 -1.692,-22.819 -7.356,-34.749Zm-788.949,18.962c4.915,-13.575 19.141,-26.449 14.73,-36.866c-1.172,-2.783 -6.267,-6.803 -11.556,-6.315c-12.94,1.205 -29.541,44.418 -26.302,58.968c14.99,12.305 18.619,-3.287 23.128,-15.787Zm724.772,-80.046c0.033,12.402 15.413,21.566 21.061,21.061c20.15,-1.774 1.986,-35.384 -12.63,-31.592c-5.045,1.319 -8.431,4.346 -8.431,10.531Zm-696.354,21.061c16.992,0.375 29.069,-36.491 6.299,-31.592c-11.475,2.474 -27.198,31.153 -6.299,31.592Zm895.166,-12.63c3.76,10.889 1.562,16.357 6.331,20.003c18.604,14.258 18.701,-17.594 14.73,-28.434c-5.615,-15.186 -18.001,-36.507 -30.517,-31.592c-17.22,6.771 5.745,29.216 9.456,40.023Zm-1095.04,-8.431c-5.355,14.534 -4.997,30.241 7.357,30.55c11.995,0.293 10.921,-14.128 13.688,-22.119c3.223,-9.359 19.32,-23.161 15.772,-34.749c-2.393,-7.813 -11.377,-6.315 -14.73,-5.274c-7.292,2.311 -18.636,22.25 -22.087,31.592Zm897.282,125.325c-5.339,-9.375 -9.912,-20.296 -15.788,-29.492c-47.786,-74.918 -124.446,-138.021 -218.782,-166.39c-22.494,-6.754 -42.302,-10.433 -70.492,-12.63c-38.525,-2.995 -85.709,-3.597 -116.748,7.373c-3.483,1.237 -7.91,1.205 -11.572,2.1c-49.365,12.191 -91.292,34.049 -126.237,60.026c-51.53,38.314 -88.314,83.887 -118.864,137.956c-5.062,8.968 -13.412,21.142 -8.415,32.649c25.114,10.922 25.082,-28.304 38.916,-38.965c14.16,23.21 34.392,43.539 55.762,62.142c60.905,52.979 145.784,97.933 253.516,97.917c73.356,0 132.389,-22.135 184.082,-49.479c51.367,-27.181 92.854,-67.464 125.179,-110.58c12.06,12.094 13.411,49.545 37.874,38.965c5.469,-11.214 -3.206,-22.444 -8.431,-31.592Zm-436.54,-246.419c-25.016,6.087 -46.289,14.421 -67.334,23.161c-65.901,27.425 -106.412,58.04 -145.149,107.422c-4.883,6.217 -32.227,34.619 -24.203,44.222c7.178,8.61 17.025,2.458 24.203,-6.315c17.854,-21.843 32.845,-44.922 50.488,-61.084c52.523,-48.128 142.529,-91.292 234.57,-96.875c118.962,-7.21 223.438,40.983 285.075,97.933c10.986,10.156 20.996,22.9 33.659,38.965c4.573,5.794 26.53,43.473 39.974,27.376c8.577,-10.254 -18.766,-36.312 -24.186,-43.18c-11.377,-14.421 -23.194,-29.265 -33.675,-38.965c-65.625,-60.629 -176.612,-110.449 -293.474,-104.248c-25.569,1.351 -55.143,5.55 -79.948,11.588Zm248.243,-11.588c1.774,13.069 18.261,9.961 24.202,11.588c29.346,8.041 72.135,35.612 92.562,52.653c5.973,4.981 15.12,13.493 18.929,17.904c2.783,3.206 10.482,27.051 26.302,22.103c0.7,-0.212 5.713,-4.33 6.331,-6.315c2.914,-9.62 -10.058,-24.382 -17.903,-32.634c-21.208,-22.363 -67.937,-54.394 -104.134,-69.515c-9.734,-4.069 -30.274,-10.563 -38.916,-7.373c-5.746,2.132 -8.252,4.981 -7.373,11.589Zm-393.409,20.003c-24.69,15.218 -45.247,30.908 -58.903,45.296c-8.056,8.464 -28.141,33.789 -11.572,38.949c16.634,5.208 22.38,-17.676 27.344,-23.161c4.232,-4.671 12.825,-11.768 18.945,-16.846c24.235,-20.15 63.346,-44.873 92.562,-52.653c3.874,-1.041 25.586,-0.016 23.144,-15.804c-1.285,-8.235 -8.317,-8.382 -17.887,-7.373c-25.618,2.735 -52.181,18.376 -73.633,31.592Zm336.605,-28.434c4.753,2.864 26.351,7.015 31.559,5.273c4.362,-1.448 7.927,-9.001 6.315,-14.746c-2.49,-8.838 -27.49,-12.793 -34.716,-10.531c-8.301,2.605 -11.817,14.795 -3.158,20.004Zm-226.155,-7.357c-2.361,16.52 14.355,11.556 24.186,9.473c11.181,-2.344 20.166,-2.898 18.945,-13.705c-1.221,-10.726 -8.415,-9.033 -16.829,-8.415c-10.791,0.798 -24.87,2.653 -26.302,12.647Zm68.375,-13.705c-2.083,21.029 45.785,8.334 64.177,8.431c21.728,0.114 60.921,11.036 63.102,-5.257c2.767,-20.573 -56.641,-18.261 -69.418,-17.903c-20.426,0.569 -56.445,0.472 -57.861,14.729Zm641.667,10.531c18.294,14.6 36.263,47.087 46.289,74.772c3.76,10.368 4.508,25.586 15.771,25.277c12.712,-0.358 11.215,-16.309 6.315,-30.55c-10.904,-31.69 -27.327,-63.721 -51.546,-84.229c-8.838,-7.487 -23.079,-16.097 -30.501,-13.688c-25.13,8.138 10.596,25.96 13.672,28.418Zm-1151.84,-28.418c-36.638,15.983 -58.822,59.082 -72.592,98.975c-4.313,12.516 -7.242,31.38 8.415,29.492c9.457,-1.139 10.075,-16.634 13.672,-26.335c10.921,-29.362 26.335,-57.308 47.347,-73.714c5.355,-4.183 22.184,-7.357 19.971,-21.061c-1.172,-7.324 -7.862,-8.61 -14.714,-7.357c-0.602,0.098 -1.546,-0.26 -2.099,0Zm634.293,-26.335c-18.652,-2.832 -47.168,-10.286 -45.231,8.431c1.286,12.289 18.701,9.978 32.617,11.573c14.095,1.627 25.733,6.087 39.974,5.273c20.313,-18.929 -5.208,-21.907 -27.36,-25.277Zm-155.68,15.805c1.465,16.113 31.478,7.177 47.331,5.257c16.487,-1.986 33.073,-2.458 32.617,-14.746c-0.407,-10.84 -10.254,-9.424 -14.73,-9.473c-18.229,-0.244 -66.699,2.62 -65.218,18.962Zm-68.376,-184.294c-1.172,19.613 31.576,8.74 41.032,3.157c12.077,-30.013 -40.137,-17.903 -41.032,-3.157Zm351.351,-46.338c2.1,7.227 13.363,7.764 25.228,12.63c9.44,3.874 24.609,13.981 28.418,1.058c4.378,-14.86 -35.954,-30.485 -45.247,-28.434c-4.948,1.09 -11.784,3.125 -8.399,14.746Zm-390.267,-14.746c-12.89,5.68 -42.138,11.93 -38.932,27.376c2.978,14.291 18.864,4.248 29.46,0c16.178,-6.478 28.711,-6.608 23.144,-24.219c-3.483,-3.32 -9.749,-4.882 -13.672,-3.157Zm498.617,9.489c1.041,11.491 35.286,39.583 41.032,21.061c3.532,-11.475 -21.127,-32.601 -28.435,-33.708c-2.718,-0.407 -5.127,0.603 -6.298,1.058c-4.965,1.937 -6.967,4.265 -6.299,11.589Zm-623.796,2.099c-7.942,7.504 -16.455,23.796 0,25.277c10.498,0.928 35.222,-21.745 31.559,-33.708c-2.457,-7.975 -11.23,-6.298 -14.729,-5.257c-5.062,1.498 -12.484,9.571 -16.83,13.688Zm533.317,-67.399c1.123,10.726 22.738,15.918 32.601,21.062c8.529,4.41 40.169,31.201 43.132,9.472c1.546,-11.198 -18.506,-21.37 -27.344,-26.318c-12.549,-7.048 -30.908,-18.18 -39.958,-15.804c-4.183,1.107 -9.179,4.459 -8.431,11.588Zm-461.784,5.274c-6.656,3.808 -27.734,14.762 -25.244,26.318c4.248,19.857 34.408,-6.006 43.116,-10.53c11.36,-5.892 33.105,-10.026 32.617,-23.161c-0.31,-8.203 -7.715,-10.205 -13.672,-9.489c-11.41,1.383 -27.556,11.523 -36.817,16.862Zm317.676,-8.431c0.505,15.788 17.139,7.226 26.302,5.257c17.985,-3.841 64.112,4.834 65.218,-10.531c1.368,-19.124 -40.104,-13.802 -53.645,-12.63c-17.676,1.514 -38.363,2.832 -37.875,17.904Zm-187.239,-9.473c1.025,12.337 35.872,12.223 45.231,14.73c12.695,3.418 51.351,26.123 53.646,6.331c1.562,-13.606 -26.156,-21.061 -35.775,-24.218c-17.822,-5.892 -39.974,-12.663 -53.63,-8.431c-6.51,2.002 -10.042,4.801 -9.472,11.588Zm-21.045,-1.058c1.139,-10.97 -8.382,-16.26 -22.087,-11.588c-28.336,9.668 19.466,37.077 22.087,11.588Zm220.914,120.052c11.296,3.728 31.853,12.565 32.601,-3.157c0.619,-12.94 -16.292,-15.137 -28.401,-18.962c-0.375,-10.156 1.237,-22.298 -2.116,-29.476c17.383,-9.912 59.586,12.289 59.977,-9.489c0.358,-20.849 -44.336,-13.785 -67.334,-13.688c-13.411,-20.98 -29.818,-38.948 -46.273,-56.868c24.691,-16.423 50.44,-29.297 87.305,-31.592c89.811,-5.599 160.01,31.25 211.442,71.614c55.273,43.376 84.782,108.448 103.076,180.079c-4.818,2.392 -11.214,8.138 -15.771,7.373c-7.08,-30.86 -18.555,-56.527 -35.775,-81.088c-3.679,-5.289 -13.037,-18.994 -19.987,-18.961c-3.288,0.016 -9.636,3.825 -10.514,9.472c-1.286,8.399 8.577,17.872 13.671,25.277c15.414,22.396 27.507,52.263 34.717,78.988c-3.955,3.776 -10.205,10.823 -13.688,11.572c-18.978,-36.621 -45.036,-75.651 -77.832,-105.306c-7.471,-6.754 -21.256,-22.2 -30.501,-21.061c-4.281,0.537 -9.099,5.045 -9.473,9.489c-0.96,11.54 18.734,21.419 27.344,29.476c20.329,18.961 34.212,38.72 50.521,63.183c10.579,15.886 25.602,30.827 17.855,51.612c-4.655,-0.961 -5.599,-6.202 -8.399,-9.489c-8.545,-9.961 -19.987,-19.873 -29.46,-30.534c-23.974,-26.97 -51.367,-54.053 -83.105,-74.772c-15.446,-10.091 -32.048,-25.033 -53.646,-23.161c-12.028,13.102 4.167,19.613 16.83,26.318c25.081,13.298 46.516,31.25 65.218,48.454c20.996,19.303 36.914,37.305 55.745,57.926c5.762,6.283 15.267,10.71 15.788,19.987c-12.24,-0.081 -17.155,0.57 -24.186,-3.157c-5.697,-2.995 -22.282,-26.253 -28.418,-7.373c-2.328,7.194 3.287,14.551 6.331,17.903c11.556,12.793 36.231,20.199 55.729,12.647c-1.465,7.992 -3.336,15.609 -3.141,25.277c-6.95,11.181 -25.667,36.849 -22.103,55.81c0.96,5.013 5.567,9.75 11.589,9.473c13.509,-0.602 9.7,-18.376 15.771,-28.434c2.93,5.826 5.371,12.19 8.415,17.903c-8.187,16.667 -5.485,56.934 12.614,55.811c15.609,-0.96 6.364,-18.034 6.315,-31.592c5.892,-0.928 17.904,11.963 31.559,11.589c0.716,16.585 1.644,37.418 16.846,36.849c21.094,-0.782 1.074,-23.975 5.257,-36.849c1.969,-6.088 19.596,-13.607 25.244,-23.178c4.118,-6.982 8.122,-23.551 5.257,-34.749c-2.197,-8.545 -11.621,-24.837 -24.202,-24.219c-6.869,0.342 -10.042,4.753 -10.515,9.489c-1.236,12.549 10.759,11.914 12.631,21.062c5.501,26.806 -26.091,35.058 -43.148,24.218c-39.437,-25.081 -33.138,-92.659 -6.299,-126.367c24.186,-30.404 62.142,-50.309 114.665,-47.396c117.431,6.511 213.411,90.104 222.998,214.828c2.376,30.713 -0.537,53.89 -11.556,81.087c-3.565,1.644 -9.587,-2.002 -15.788,-1.058c11.963,-47.054 1.628,-104.069 -17.887,-138.997c-5.111,-9.164 -16.976,-28.516 -27.344,-28.435c-20.28,0.147 -5.534,21.436 1.042,30.534c21.354,29.46 35.547,84.538 21.061,134.798c-5.046,-0.699 -11.589,1.091 -13.688,0c2.457,-16.308 2.457,-37.434 -10.531,-37.906c-18.294,-0.684 -7.129,26.774 -12.614,42.122c-8.545,2.327 -16.39,5.355 -24.186,8.415c0.13,-29.786 -8.887,-66.439 -23.145,-89.502c-2.669,-4.281 -33.805,-38.2 -37.874,-13.688c-1.644,9.912 10.156,13.997 15.772,21.061c10.937,13.72 22.477,46.907 23.16,71.598c0.131,5.176 1.319,15.446 -1.058,22.119c-3.466,9.652 -15.983,12.94 -25.26,22.119c-22.77,22.543 -34.928,48.682 -39.958,86.361c-13.134,9.245 -22.021,22.266 -32.617,37.891c-6.413,9.489 -23.519,36.49 -2.099,36.865c10.888,0.195 14.908,-15.69 19.987,-23.161c6.819,-10.059 10.66,-18.538 18.929,-24.219c0.895,7.162 5.387,10.775 7.356,16.846c-4.801,12.142 -25.976,45.378 -23.128,61.084c0.977,5.387 6.055,9.359 10.498,9.473c18.685,0.455 16.83,-47.364 29.46,-54.769c32.487,21.273 81.413,-0.716 77.848,-41.065c-1.09,-12.288 -9.814,-22.998 -17.871,-23.177c-3.499,-0.049 -10.726,2.897 -11.572,9.489c-1.286,9.88 6.852,10.238 7.356,16.846c0.961,12.581 -13.671,25.114 -29.459,24.219c-15.332,-0.863 -31.299,-17.823 -32.601,-34.75c-2.604,-33.805 15.381,-63.183 31.559,-80.045c23.796,-24.789 54.769,-41.944 94.662,-42.106c35.774,-0.147 67.578,12.418 96.793,26.318c67.578,32.178 119.58,79.834 125.163,171.663c2.897,47.657 -10.612,95.378 -28.402,131.625c-17.675,36.002 -41.65,56.445 -79.948,80.045c-0.895,-3.808 3.825,-6.478 6.316,-9.489c8.447,-10.172 16.52,-23.405 23.144,-36.849c8.659,-17.643 18.132,-39.42 14.73,-61.084c-17.367,-12.939 -23.145,19.45 -27.36,31.592c-11.1,31.983 -22.949,48.714 -45.231,70.557c-8.692,8.528 -19.336,24.967 -29.444,28.434c-10.449,3.581 -16.634,-2.458 -27.343,2.1c-0.7,-2.946 2.653,-6.657 4.199,-8.415c39.599,-45.345 81.868,-102.246 75.749,-193.766c-1.124,-16.488 -4.444,-55.827 -20.004,-55.827c-20.101,0.016 -3.092,44.336 -2.099,58.984c6.429,94.369 -46.566,151.725 -91.521,200.082l-38.916,-0c-1.692,-2.133 9.408,-9.506 13.672,-13.689c33.692,-33.007 70.378,-84.895 70.492,-150.585c0.016,-16.309 -1.693,-51.075 -15.788,-51.612c-19.694,-0.716 -6.217,44.271 -7.373,63.2c-3.499,57.617 -38.639,102.262 -72.575,130.566c-8.838,7.374 -15.885,10.108 -21.045,22.12l-51.53,-0c-1.237,-3.565 5.225,-7.911 9.457,-12.631c19.808,-22.037 35.986,-41.487 44.173,-77.946c2.295,-10.123 8.675,-29.768 -6.315,-30.517c-13.395,-0.684 -14.014,23.047 -16.813,33.691c-10.629,40.397 -41.016,61.312 -64.177,87.403l-83.089,-0c-1.725,-1.888 5.371,-13.575 -2.116,-17.904c-16.536,-4.069 -24.479,9.049 -31.559,17.904l-34.717,-0c-3.516,-7.146 16.553,-16.569 15.788,-28.435c-0.375,-5.745 -4.216,-10.302 -10.514,-10.53c-15.121,-0.554 -26.01,31.526 -35.775,38.965l-77.849,-0c-1.09,-4.33 8.903,-8.838 14.73,-13.689c6.446,-5.338 24.772,-25.032 5.274,-28.434c-11.345,-1.985 -21.664,13.379 -31.576,21.061c-11.702,9.099 -22.998,13.591 -30.501,21.062l-415.495,-0c-7.487,-7.422 -18.913,-12.045 -30.517,-21.062c-9.847,-7.649 -19.955,-22.184 -30.502,-21.061c-5.794,0.619 -9.114,5.502 -9.472,9.473c-1.465,16.846 26.269,20.996 29.459,32.65l-77.832,-0c-11.035,-5.062 -19.857,-38.51 -35.775,-38.965c-6.071,-0.163 -10.872,4.15 -11.572,9.472c-1.676,12.679 17.871,21.143 16.83,29.493l-34.717,-0c-6.95,-5.437 -16.032,-22.608 -29.444,-18.946c-7.877,2.149 -7.991,13.2 -4.215,18.946l-42.074,-0c-12.63,-0 -28.727,3.385 -41.015,-0c-9.75,-2.67 -20.72,-21.013 -28.402,-29.493c-20.019,-22.054 -30.338,-29.866 -37.874,-63.183c-2.897,-12.761 -4.379,-28.19 -14.73,-28.418c-24.284,-0.554 0.797,60.384 5.257,68.441c11.93,21.565 31.022,36.539 42.09,52.653l-51.563,-0c-3.662,-1.221 -3.157,-6.657 -5.257,-9.473c-42.789,-28.971 -84.765,-77.425 -89.404,-141.113c-0.619,-8.399 -0.57,-16.732 -0,-25.277c0.879,-13.281 10.823,-39.372 -6.315,-40.023c-15.186,-0.553 -16.813,34.343 -16.83,50.554c-0.114,75.016 44.939,130.501 85.205,165.332c-13.216,-2.621 -26.318,3.466 -38.932,-0c-9.326,-2.556 -28.141,-30.241 -34.7,-37.907c-36.621,-42.936 -67.79,-110.71 -53.646,-187.451c1.725,-9.424 10.954,-33.708 -6.315,-33.708c-15.365,0.016 -18.929,40.12 -19.987,54.769c-6.787,93.294 40.739,156.933 80.989,203.239c-10.123,-4.102 -16.683,1.139 -27.343,-2.1c-11.849,-3.597 -20.573,-19.531 -29.46,-28.434c-21.484,-21.517 -35.075,-37.451 -46.273,-69.499c-3.955,-11.295 -10.124,-47.298 -26.302,-32.65c-6.462,5.86 -0.244,24.838 2.116,32.65c7.601,25.374 19.954,47.526 34.7,65.283c2.491,3.011 7.813,6.348 6.316,9.489c-37.842,-23.079 -62.468,-44.417 -79.948,-80.045c-17.513,-35.677 -31.12,-82.552 -28.402,-131.625c5.013,-90.771 56.169,-138.899 123.063,-171.663c28.141,-13.77 62.321,-26.188 96.794,-26.318c40.853,-0.163 73.421,17.806 96.777,42.106c15.983,16.683 34.115,44.498 31.543,78.987c-1.318,17.741 -16.081,34.88 -32.601,35.808c-15.95,0.895 -29.752,-11.768 -29.459,-23.161c0.13,-5.062 15.445,-25.326 -2.1,-27.393c-9.001,-1.041 -18.571,10.156 -19.987,22.119c-4.802,40.463 44.938,63.884 76.79,42.123c5.339,7.357 10.84,17.204 14.73,28.434c3.646,10.547 3.272,26.644 15.772,26.335c24.837,-0.619 -6.104,-61.801 -12.614,-69.515c1.22,-7.178 6.608,-10.205 7.356,-17.888c8.252,5.648 12.142,14.193 18.946,24.219c4.915,7.259 9.131,22.591 18.929,23.161c22.363,1.318 5.843,-26.66 -1.058,-36.865c-10.222,-15.072 -18.001,-28.158 -32.601,-36.849c-4.688,-53.239 -32.503,-83.317 -65.234,-108.464c-3.337,-32.715 5.973,-71.029 20.003,-91.618c5.387,-7.91 18.88,-12.972 17.871,-23.177c-2.425,-24.87 -33.285,5.257 -37.874,12.647c-14.356,23.193 -22.754,57.356 -23.129,89.502c-7.812,-3.06 -15.674,-6.088 -24.202,-8.415c-5.762,-14.811 5.843,-41.471 -11.572,-42.122c-13.77,-0.521 -14.226,20.849 -11.573,37.906c-2.099,1.091 -8.626,-0.699 -13.672,0c-14.192,-49.072 -0.976,-104.427 21.045,-134.798c5.697,-7.861 21.257,-27.929 3.158,-30.534c-12.972,-1.871 -22.884,18.685 -28.402,28.435c-18.75,33.089 -32.291,90.706 -18.945,138.997c-5.306,-0.049 -10.108,0.423 -13.672,2.116c-12.956,-20.768 -16.048,-47.868 -13.672,-81.087c8.626,-120.508 99.854,-208.285 221.957,-215.886c51.025,-3.174 90.95,16.293 115.706,47.396c27.474,34.489 32.617,101.628 -6.315,126.367c-16.423,10.433 -47.51,4.004 -43.115,-23.177c1.839,-11.426 13.004,-8.496 12.613,-21.061c-0.146,-4.818 -3.955,-9.928 -9.456,-10.531c-12.386,-1.334 -25.098,16.683 -26.302,29.493c-2.604,27.49 15.544,40.413 31.559,51.595c1.953,15.267 -13.704,35.888 4.199,37.907c14.079,1.595 18.083,-18.425 17.888,-36.849c13.607,-0.424 23.714,-9.961 31.559,-12.647c0.879,13.591 -9.814,30.583 5.257,32.65c19.125,2.62 22.022,-38.981 13.672,-55.811c2.376,-6.038 6.332,-10.514 7.373,-17.903c8.057,8.675 2.669,27.783 16.813,28.434c24.984,1.155 0.472,-57.292 -10.514,-64.242c0.309,-10.14 -1.611,-18.034 -3.158,-26.318c20.508,10.238 67.904,-6.136 62.077,-29.492c-1.188,-4.737 -5.55,-7.113 -9.472,-7.357c-10.238,-0.667 -10.775,9.359 -18.929,13.672c-7.194,3.808 -11.898,3.027 -24.203,3.157c25.83,-48.909 65.43,-86.132 117.822,-112.679c9.587,-4.85 31.495,-8.821 30.502,-22.102c-1.709,-22.706 -50.131,6.738 -57.862,11.572c-43.554,27.344 -85.254,64.551 -108.349,107.422c-3.565,-1.693 -3.89,-6.641 -8.415,-7.373c15.446,-38.119 41.536,-74.317 72.591,-104.248c6.006,-5.795 28.597,-20.036 28.402,-30.551c-0.114,-6.298 -6.022,-10.074 -8.415,-10.53c-9.896,-1.904 -24.121,14.323 -31.559,21.061c-31.478,28.467 -58.138,67.855 -77.848,104.264c-2.702,3.142 -8.643,-7.991 -13.672,-9.489c7.096,-27.278 18.148,-55.924 34.717,-80.029c5.224,-7.601 25.244,-33.301 4.199,-34.749c-7.845,-0.537 -17.188,13.476 -21.029,18.961c-16.488,23.536 -28.727,49.854 -35.775,81.088c-4.85,1.383 -9.489,-5.73 -15.771,-6.332c18.668,-72.51 44.645,-130.355 92.562,-172.705c45.28,-40.006 112.077,-70.833 188.297,-80.029c50.375,-6.071 84.603,9.196 117.806,29.476c25.847,15.804 47.347,31.559 62.077,50.553c13.965,18.001 30.99,58.545 11.572,84.261c-10.644,14.079 -52.034,27.621 -68.375,7.357c-9.18,-11.361 -10.157,-35.27 5.257,-37.907c8.398,-1.432 25.537,11.068 26.302,-6.315c0.423,-9.749 -13.721,-16.39 -21.045,-16.846c-39.551,-2.522 -47.087,43.474 -30.501,70.557c24.593,40.169 100.814,22.103 114.664,-17.904" style="fill:#f6f6f1;"/></svg>