<?xml version="1.0" encoding="UTF-8"?>
<svg xmlns="http://www.w3.org/2000/svg" xmlns:xlink="http://www.w3.org/1999/xlink" width="720pt" height="503.999982pt" viewBox="0 0 720 503.999982" version="1.2">
<defs>
<clipPath id="clip1">
  <path d="M 394 108.429688 L 679 108.429688 L 679 395.679688 L 394 395.679688 Z M 394 108.429688 "/>
</clipPath>
</defs>
<g id="surface1">
<rect x="0" y="0" width="720" height="503.999982" style="fill:rgb(100%,100%,100%);fill-opacity:1;stroke:none;"/>
<rect x="0" y="0" width="720" height="503.999982" style="fill:rgb(43.919373%,38.819885%,58.81958%);fill-opacity:1;stroke:none;"/>
<path style=" stroke:none;fill-rule:nonzero;fill:rgb(100%,100%,100%);fill-opacity:1;" d="M 668.921875 252.082031 C 668.921875 245.507812 675.609375 238.546875 674.726562 232.246094 C 673.785156 225.78125 665.441406 220.976562 663.617188 214.84375 C 661.792969 208.597656 666.214844 200.035156 663.5625 194.179688 C 660.855469 188.265625 651.460938 186 647.980469 180.585938 C 644.441406 175.117188 646.320312 165.667969 642.066406 160.75 C 637.808594 155.890625 628.195312 156.332031 623.277344 152.132812 C 618.414062 147.878906 617.527344 138.265625 612.058594 134.785156 C 606.640625 131.304688 597.523438 134.453125 591.609375 131.746094 C 585.753906 129.09375 582.214844 120.085938 575.972656 118.265625 C 569.835938 116.441406 561.992188 122.074219 555.523438 121.136719 C 549.167969 120.253906 543.199219 112.628906 536.625 112.628906 C 530.046875 112.628906 524.082031 120.253906 517.78125 121.136719 C 511.316406 122.074219 503.46875 116.441406 497.332031 118.265625 C 491.089844 120.085938 487.496094 129.09375 481.695312 131.746094 C 475.78125 134.453125 466.664062 131.246094 461.246094 134.785156 C 455.777344 138.320312 454.890625 147.933594 450.027344 152.132812 C 445.164062 156.386719 435.496094 155.890625 431.238281 160.75 C 426.984375 165.613281 428.863281 175.117188 425.328125 180.585938 C 421.84375 186 412.449219 188.265625 409.742188 194.179688 C 407.089844 200.035156 411.511719 208.597656 409.6875 214.84375 C 407.863281 220.976562 399.464844 225.78125 398.578125 232.246094 C 397.695312 238.546875 404.382812 245.507812 404.382812 252.082031 C 404.382812 258.65625 397.695312 265.617188 398.578125 271.917969 C 399.519531 278.382812 407.863281 283.1875 409.6875 289.320312 C 411.511719 295.5625 407.089844 304.128906 409.742188 309.984375 C 412.449219 315.898438 421.84375 318.160156 425.328125 323.578125 C 428.863281 329.046875 426.984375 338.496094 431.238281 343.410156 C 435.496094 348.273438 445.109375 347.832031 450.027344 352.03125 C 454.890625 356.285156 455.777344 365.898438 461.246094 369.378906 C 466.664062 372.859375 475.78125 369.710938 481.695312 372.417969 C 487.550781 375.070312 491.089844 384.078125 497.332031 385.898438 C 503.46875 387.722656 511.316406 382.085938 517.78125 383.027344 C 524.082031 383.910156 530.046875 391.535156 536.625 391.535156 C 543.199219 391.535156 549.167969 383.910156 555.46875 383.027344 C 561.933594 382.085938 569.78125 387.722656 575.917969 385.898438 C 582.160156 384.078125 585.753906 375.070312 591.554688 372.417969 C 597.46875 369.710938 606.585938 372.914062 612.003906 369.378906 C 617.472656 365.84375 618.359375 356.230469 623.222656 352.03125 C 628.085938 347.777344 637.753906 348.273438 642.011719 343.410156 C 646.265625 338.550781 644.386719 329.046875 647.921875 323.578125 C 651.40625 318.160156 660.800781 315.898438 663.507812 309.984375 C 666.160156 304.128906 661.738281 295.5625 663.5625 289.320312 C 665.386719 283.1875 673.730469 278.382812 674.671875 271.917969 C 675.609375 265.617188 668.921875 258.65625 668.921875 252.082031 Z M 668.921875 252.082031 "/>
<g clip-path="url(#clip1)" clip-rule="nonzero">
<path style=" stroke:none;fill-rule:nonzero;fill:rgb(69.799805%,81.568909%,83.918762%);fill-opacity:1;" d="M 536.625 395.679688 C 531.871094 395.679688 527.78125 393.027344 524.191406 390.652344 C 521.648438 388.992188 519.21875 387.390625 517.226562 387.113281 C 515.074219 386.839844 512.253906 387.667969 509.269531 388.550781 C 505.179688 389.765625 500.59375 391.203125 496.171875 389.878906 C 491.640625 388.550781 488.492188 384.851562 485.726562 381.589844 C 483.738281 379.269531 481.859375 377.058594 479.980469 376.175781 C 478.046875 375.292969 475.117188 375.292969 472.023438 375.347656 C 467.769531 375.402344 462.90625 375.402344 459.035156 372.859375 C 455.113281 370.320312 453.125 365.898438 451.355469 361.976562 C 450.082031 359.15625 448.921875 356.507812 447.320312 355.125 C 445.71875 353.742188 442.898438 352.96875 439.972656 352.085938 C 435.882812 350.925781 431.183594 349.601562 428.144531 346.0625 C 425.105469 342.527344 424.441406 337.722656 423.835938 333.523438 C 423.390625 330.484375 423.003906 327.554688 421.898438 325.785156 C 420.792969 324.019531 418.308594 322.472656 415.710938 320.871094 C 412.0625 318.605469 407.972656 316.007812 406.039062 311.699219 C 404.105469 307.5 404.824219 302.691406 405.488281 298.492188 C 405.929688 295.398438 406.371094 292.527344 405.761719 290.480469 C 405.210938 288.492188 403.277344 286.335938 401.230469 284.015625 C 398.414062 280.8125 395.152344 277.109375 394.488281 272.46875 C 393.828125 267.9375 395.871094 263.574219 397.640625 259.707031 C 398.964844 256.886719 400.238281 254.179688 400.238281 252.027344 C 400.238281 249.871094 398.964844 247.164062 397.640625 244.347656 C 395.871094 240.535156 393.828125 236.167969 394.488281 231.582031 C 395.152344 226.886719 398.359375 223.242188 401.230469 220.035156 C 403.277344 217.714844 405.15625 215.5625 405.761719 213.628906 C 406.371094 211.582031 405.929688 208.65625 405.488281 205.617188 C 404.824219 201.417969 404.105469 196.664062 406.039062 192.410156 C 407.972656 188.15625 412.117188 185.558594 415.710938 183.238281 C 418.308594 181.582031 420.792969 180.035156 421.898438 178.320312 C 423.058594 176.554688 423.449219 173.625 423.835938 170.585938 C 424.386719 166.386719 425.050781 161.582031 428.144531 158.042969 C 431.183594 154.507812 435.882812 153.183594 439.972656 152.023438 C 442.953125 151.195312 445.773438 150.363281 447.320312 148.984375 C 448.921875 147.601562 450.082031 144.949219 451.355469 142.132812 C 453.125 138.210938 455.058594 133.789062 459.035156 131.246094 C 462.960938 128.707031 467.769531 128.761719 472.023438 128.761719 C 475.117188 128.761719 478.046875 128.816406 479.980469 127.933594 C 481.859375 127.046875 483.738281 124.839844 485.726562 122.519531 C 488.492188 119.257812 491.640625 115.554688 496.171875 114.230469 C 500.59375 112.90625 505.234375 114.339844 509.269531 115.554688 C 512.253906 116.441406 515.074219 117.324219 517.226562 116.992188 C 519.273438 116.714844 521.648438 115.113281 524.191406 113.457031 C 527.78125 111.082031 531.871094 108.429688 536.625 108.429688 C 541.378906 108.429688 545.46875 111.082031 549.058594 113.457031 C 551.601562 115.113281 554.03125 116.714844 556.023438 116.992188 C 558.175781 117.324219 560.996094 116.441406 563.980469 115.554688 C 568.070312 114.339844 572.65625 112.90625 577.078125 114.230469 C 581.609375 115.554688 584.757812 119.257812 587.523438 122.519531 C 589.511719 124.839844 591.390625 127.046875 593.269531 127.933594 C 595.203125 128.816406 598.132812 128.816406 601.226562 128.761719 C 605.480469 128.707031 610.34375 128.707031 614.214844 131.246094 C 618.136719 133.789062 620.125 138.210938 621.894531 142.132812 C 623.164062 144.949219 624.328125 147.601562 625.929688 148.984375 C 627.53125 150.363281 630.351562 151.136719 633.277344 152.023438 C 637.367188 153.183594 642.066406 154.507812 645.105469 158.042969 C 648.144531 161.582031 648.808594 166.386719 649.414062 170.585938 C 649.859375 173.625 650.246094 176.554688 651.351562 178.320312 C 652.453125 180.089844 654.941406 181.636719 657.539062 183.238281 C 661.1875 185.503906 665.277344 188.101562 667.210938 192.410156 C 669.144531 196.609375 668.425781 201.417969 667.761719 205.617188 C 667.320312 208.710938 666.878906 211.582031 667.484375 213.628906 C 668.039062 215.617188 669.972656 217.769531 672.019531 220.089844 C 674.835938 223.296875 678.097656 226.996094 678.761719 231.640625 C 679.421875 236.167969 677.378906 240.535156 675.609375 244.402344 C 674.285156 247.21875 673.011719 249.925781 673.011719 252.082031 C 673.011719 254.238281 674.285156 256.945312 675.609375 259.761719 C 677.378906 263.574219 679.421875 267.9375 678.761719 272.523438 C 678.097656 277.222656 674.890625 280.867188 672.019531 284.070312 C 669.972656 286.394531 668.09375 288.546875 667.484375 290.480469 C 666.878906 292.527344 667.320312 295.453125 667.761719 298.492188 C 668.425781 302.691406 669.144531 307.441406 667.210938 311.699219 C 665.277344 315.953125 661.132812 318.546875 657.539062 320.871094 C 654.941406 322.527344 652.453125 324.074219 651.351562 325.785156 C 650.1875 327.554688 649.800781 330.484375 649.414062 333.523438 C 648.863281 337.722656 648.199219 342.527344 645.105469 346.0625 C 642.066406 349.601562 637.367188 350.925781 633.277344 352.085938 C 630.292969 352.914062 627.476562 353.742188 625.929688 355.125 C 624.328125 356.507812 623.164062 359.15625 621.894531 361.976562 C 620.125 365.898438 618.191406 370.320312 614.214844 372.859375 C 610.289062 375.402344 605.480469 375.347656 601.226562 375.347656 C 598.132812 375.347656 595.203125 375.292969 593.269531 376.175781 C 591.390625 377.058594 589.511719 379.269531 587.523438 381.589844 C 584.757812 384.851562 581.609375 388.550781 577.078125 389.878906 C 572.65625 391.203125 568.015625 389.765625 563.980469 388.550781 C 560.996094 387.667969 558.175781 386.785156 556.023438 387.113281 C 553.976562 387.390625 551.601562 388.992188 549.058594 390.652344 C 545.46875 393.027344 541.378906 395.679688 536.625 395.679688 Z M 516.289062 378.773438 C 517.007812 378.773438 517.667969 378.828125 518.386719 378.9375 C 522.257812 379.492188 525.515625 381.644531 528.722656 383.746094 C 531.597656 385.625 534.359375 387.445312 536.625 387.445312 C 538.890625 387.445312 541.652344 385.679688 544.527344 383.746094 C 547.734375 381.644531 551.046875 379.492188 554.863281 378.9375 C 558.785156 378.386719 562.652344 379.546875 566.355469 380.652344 C 569.449219 381.589844 572.65625 382.585938 574.757812 381.976562 C 576.910156 381.367188 579.011719 378.882812 581.222656 376.285156 C 583.707031 373.359375 586.304688 370.375 589.84375 368.714844 C 593.433594 367.058594 597.46875 367.113281 601.28125 367.113281 C 604.542969 367.113281 607.914062 367.167969 609.738281 365.953125 C 611.617188 364.738281 612.941406 361.808594 614.324219 358.660156 C 615.871094 355.125 617.527344 351.535156 620.511719 348.9375 C 623.496094 346.339844 627.308594 345.234375 631.011719 344.183594 C 634.273438 343.246094 637.421875 342.363281 638.859375 340.703125 C 640.296875 339.046875 640.738281 335.84375 641.179688 332.472656 C 641.679688 328.660156 642.230469 324.679688 644.386719 321.367188 C 646.488281 318.050781 649.859375 315.953125 653.117188 313.90625 C 655.992188 312.085938 658.753906 310.371094 659.695312 308.328125 C 660.578125 306.339844 660.082031 303.023438 659.582031 299.820312 C 659.03125 296.007812 658.421875 292.027344 659.527344 288.214844 C 660.632812 284.457031 663.230469 281.53125 665.773438 278.65625 C 668.039062 276.0625 670.195312 273.628906 670.527344 271.363281 C 670.800781 269.265625 669.421875 266.226562 668.039062 263.296875 C 666.382812 259.761719 664.667969 256.113281 664.667969 252.082031 C 664.667969 248.046875 666.382812 244.402344 668.039062 240.867188 C 669.421875 237.9375 670.800781 234.898438 670.527344 232.800781 C 670.195312 230.535156 668.039062 228.101562 665.773438 225.507812 C 663.230469 222.632812 660.632812 219.648438 659.527344 215.949219 C 658.421875 212.136719 659.03125 208.15625 659.582031 204.34375 C 660.082031 201.140625 660.578125 197.824219 659.695312 195.835938 C 658.753906 193.792969 656.046875 192.078125 653.117188 190.253906 C 649.859375 188.210938 646.488281 186.113281 644.386719 182.796875 C 642.230469 179.480469 641.679688 175.503906 641.179688 171.691406 C 640.738281 168.320312 640.296875 165.117188 638.859375 163.460938 C 637.421875 161.800781 634.328125 160.917969 631.011719 159.976562 C 627.308594 158.929688 623.441406 157.824219 620.457031 155.226562 C 617.472656 152.628906 615.871094 148.984375 614.269531 145.503906 C 612.886719 142.351562 611.5625 139.425781 609.683594 138.210938 C 607.859375 137.050781 604.597656 137.050781 601.226562 137.050781 C 597.359375 137.050781 593.378906 137.105469 589.789062 135.445312 C 586.25 133.84375 583.652344 130.804688 581.167969 127.878906 C 578.957031 125.28125 576.855469 122.792969 574.699219 122.1875 C 572.65625 121.578125 569.394531 122.574219 566.300781 123.511719 C 562.597656 124.617188 558.730469 125.777344 554.804688 125.226562 C 550.9375 124.671875 547.675781 122.519531 544.472656 120.417969 C 541.652344 118.59375 538.890625 116.773438 536.625 116.773438 C 534.359375 116.773438 531.597656 118.539062 528.722656 120.472656 C 525.515625 122.574219 522.203125 124.726562 518.386719 125.28125 C 514.410156 125.832031 510.597656 124.671875 506.894531 123.566406 C 503.800781 122.628906 500.59375 121.632812 498.492188 122.242188 C 496.339844 122.851562 494.238281 125.335938 492.027344 127.933594 C 489.542969 130.859375 486.945312 133.84375 483.40625 135.503906 C 479.816406 137.160156 475.78125 137.105469 471.96875 137.105469 C 468.542969 137.105469 465.335938 137.050781 463.511719 138.265625 C 461.632812 139.480469 460.308594 142.410156 458.925781 145.558594 C 457.378906 149.09375 455.71875 152.683594 452.738281 155.28125 C 449.753906 157.878906 445.9375 158.984375 442.179688 160.035156 C 438.921875 160.972656 435.769531 161.855469 434.335938 163.515625 C 432.898438 165.171875 432.457031 168.375 432.011719 171.746094 C 431.515625 175.558594 430.964844 179.539062 428.808594 182.851562 C 426.707031 186.167969 423.335938 188.265625 420.078125 190.3125 C 417.203125 192.132812 414.441406 193.847656 413.5 195.890625 C 412.617188 197.878906 413.113281 201.195312 413.609375 204.398438 C 414.164062 208.210938 414.769531 212.191406 413.664062 216.003906 C 412.5625 219.761719 409.964844 222.6875 407.421875 225.5625 C 405.15625 228.15625 403 230.589844 402.667969 232.855469 C 402.390625 234.953125 403.773438 237.992188 405.15625 240.921875 C 406.8125 244.457031 408.527344 248.105469 408.527344 252.136719 C 408.527344 256.171875 406.8125 259.816406 405.15625 263.351562 C 403.773438 266.28125 402.390625 269.320312 402.667969 271.417969 C 403 273.683594 405.15625 276.117188 407.421875 278.710938 C 409.964844 281.585938 412.5625 284.570312 413.664062 288.269531 C 414.769531 292.082031 414.164062 296.0625 413.609375 299.875 C 413.113281 303.078125 412.617188 306.394531 413.5 308.382812 C 414.441406 310.425781 417.148438 312.140625 420.078125 313.964844 C 423.335938 316.007812 426.707031 318.105469 428.808594 321.421875 C 430.964844 324.738281 431.515625 328.714844 432.011719 332.527344 C 432.457031 335.898438 432.898438 339.101562 434.335938 340.757812 C 435.769531 342.417969 438.867188 343.300781 442.179688 344.242188 C 445.882812 345.289062 449.753906 346.394531 452.738281 348.992188 C 455.71875 351.589844 457.324219 355.234375 458.925781 358.714844 C 460.308594 361.867188 461.632812 364.792969 463.511719 366.007812 C 465.335938 367.167969 468.597656 367.167969 471.96875 367.167969 C 475.835938 367.167969 479.816406 367.113281 483.40625 368.773438 C 486.945312 370.375 489.542969 373.414062 492.027344 376.339844 C 494.238281 378.9375 496.339844 381.425781 498.492188 382.03125 C 500.59375 382.640625 503.800781 381.644531 506.894531 380.707031 C 509.933594 379.710938 513.027344 378.773438 516.289062 378.773438 Z M 516.289062 378.773438 "/>
</g>
</g>
</svg>
